#!OML:ASF F:\VICON\USERDATA\INSTALL\rory3\rory3.ASF
:FULLY-SPECIFIED
:DEGREES
84
root -0.499367 18.561 7.50856 5.51962 -2.11195 0.895998
lowerback 14.1994 -1.10244 -2.31889
upperback -2.29345 -1.78673 1.00952
thorax -10.3875 -0.676301 2.81663
lowerneck -21.7113 -3.04715 -1.98193
upperneck 10.7865 -3.94727 2.66217
head 6.9013 -1.73028 0.716851
rclavicle -1.89591e-014 1.05356e-014
rhumerus -65.9731 9.9524 -100.324
rradius 112.539
rwrist -14.3582
rhand -15.6808 34.9757
rfingers 7.12502
rthumb 10.5081 5.25837
lclavicle -1.89591e-014 1.05356e-014
lhumerus -34.9984 -19.4541 94.9496
lradius 126.969
lwrist 29.0928
lhand -30.1024 -3.48052
lfingers 7.12502
lthumb -3.41639 26.4719
rfemur -42.227 3.7514 22.7748
rtibia 48.0755
rfoot -2.93545 -2.81266
rtoes -21.0353
lfemur 16.1907 -2.85348 -26.8187
ltibia 25.6174
lfoot 27.1707 -15.4646
ltoes -15.7627
85
root -0.493675 18.6113 8.06281 5.67502 -2.18579 1.48776
lowerback 13.8907 -1.19686 -2.65768
upperback -2.08709 -1.97356 0.90497
thorax -9.96023 -0.76178 2.92002
lowerneck -22.8327 -2.98804 -2.0229
upperneck 11.0404 -3.8356 2.62678
head 7.16127 -1.66918 0.712476
rclavicle -2.21148e-015 7.15625e-015
rhumerus -65.4705 9.5562 -99.803
rradius 112.8
rwrist -14.6123
rhand -15.9074 35.0164
rfingers 7.12502
rthumb 10.2895 5.28806
lclavicle -2.21148e-015 7.15625e-015
lhumerus -35.0376 -19.641 95.0755
lradius 126.332
lwrist 28.9899
lhand -30.4944 -2.64544
lfingers 7.12502
lthumb -3.79488 27.3005
rfemur -41.3036 4.11474 21.9003
rtibia 43.0585
rfoot -2.43619 -3.59365
rtoes -19.8208
lfemur 16.64 -3.429 -27.7058
ltibia 26.3218
lfoot 28.0228 -15.1107
ltoes -12.7678
86
root -0.492666 18.6385 8.60618 5.80482 -2.08547 2.61111
lowerback 13.8434 -1.29024 -3.58538
upperback -2.1128 -2.2824 0.667734
thorax -9.91716 -0.865342 3.25406
lowerneck -23.1858 -2.93765 -1.97521
upperneck 11.0943 -3.7517 2.47606
head 7.22893 -1.63816 0.661926
rclavicle 3.14825e-014 -9.93923e-016
rhumerus -65.3186 8.98726 -99.331
rradius 113.041
rwrist -14.7465
rhand -15.6845 35.3722
rfingers 7.12502
rthumb 10.5045 5.65467
lclavicle 3.14825e-014 -9.93923e-016
lhumerus -35.4595 -19.7941 95.3674
lradius 125.51
lwrist 29.7201
lhand -30.3832 -2.75137
lfingers 7.12502
lthumb -3.68748 27.1965
rfemur -40.4486 4.14677 20.5533
rtibia 38.3361
rfoot -1.79745 -4.81838
rtoes -20.9301
lfemur 16.9477 -4.0494 -29.056
ltibia 27.7271
lfoot 27.7344 -16.3776
ltoes -14.9449
87
root -0.495497 18.6447 9.14512 5.82091 -2.23389 3.20549
lowerback 13.9295 -1.31162 -4.1212
upperback -2.10944 -2.41583 0.589271
thorax -9.9367 -0.900467 3.50446
lowerneck -23.5479 -2.86941 -2.02424
upperneck 11.3156 -3.62766 2.38604
head 7.35621 -1.5854 0.651169
rclavicle 1.21259e-014 3.97569e-016
rhumerus -65.1206 8.43855 -98.9417
rradius 113.249
rwrist -14.7182
rhand -15.689 36.2729
rfingers 7.12502
rthumb 10.5001 6.55518
lclavicle 1.21259e-014 3.97569e-016
lhumerus -36.1331 -19.9441 95.7817
lradius 124.701
lwrist 30.0915
lhand -30.7768 -2.11645
lfingers 7.12502
lthumb -4.0676 27.8245
rfemur -39.4416 4.39993 19.9742
rtibia 33.8574
rfoot -1.07438 -6.13712
rtoes -26.3167
lfemur 16.9542 -4.32851 -29.7947
ltibia 29.9796
lfoot 26.6876 -17.2778
ltoes -17.7406
88
root -0.506313 18.6429 9.67714 5.98429 -2.39024 3.07877
lowerback 14.138 -1.30088 -4.02818
upperback -2.27286 -2.38381 0.736059
thorax -10.2393 -0.87308 3.61789
lowerneck -23.5937 -2.84271 -2.2011
upperneck 11.3332 -3.54192 2.42395
head 7.37137 -1.54834 0.702508
rclavicle -2.57923e-014 -2.06736e-014
rhumerus -64.9704 7.84037 -98.593
rradius 113.253
rwrist -14.4126
rhand -16.1062 36.9577
rfingers 7.12502
rthumb 10.0977 7.21997
lclavicle -2.57923e-014 -2.06736e-014
lhumerus -37.191 -19.9988 96.471
lradius 123.876
lwrist 30.2754
lhand -31.125 -1.88674
lfingers 7.12502
lthumb -4.40384 28.0475
rfemur -38.5346 4.95877 20.1462
rtibia 29.7526
rfoot -0.76787 -7.66679
rtoes -26.7527
lfemur 16.2694 -4.58032 -29.6757
ltibia 32.9987
lfoot 24.5947 -16.8977
ltoes -21.6084
89
root -0.518618 18.6377 10.2065 6.03412 -2.54027 2.84486
lowerback 14.4197 -1.27542 -3.90491
upperback -2.33087 -2.32259 0.913725
thorax -10.4707 -0.836162 3.7419
lowerneck -23.5812 -2.7856 -2.27251
upperneck 11.1187 -3.44005 2.43625
head 7.29691 -1.50322 0.732253
rclavicle 1.95306e-014 -3.18055e-015
rhumerus -64.6332 7.40047 -98.3092
rradius 113.18
rwrist -14.0163
rhand -16.7404 36.6258
rfingers 7.12502
rthumb 9.48587 6.85934
lclavicle 1.95306e-014 -3.18055e-015
lhumerus -37.9972 -19.8027 96.9581
lradius 122.92
lwrist 30.7163
lhand -30.6023 -1.70896
lfingers 7.12502
lthumb -3.89913 28.2351
rfemur -37.439 5.48188 20.4444
rtibia 26.1025
rfoot -0.693458 -8.61844
rtoes -24.8978
lfemur 15.3008 -4.75156 -29.3654
ltibia 36.5295
lfoot 25.3941 -16.4275
ltoes -16.1201
90
root -0.525341 18.629 10.742 5.86038 -2.62982 2.72602
lowerback 14.5633 -1.2715 -3.78771
upperback -2.17142 -2.28594 1.03188
thorax -10.379 -0.826652 3.79741
lowerneck -23.4433 -2.7933 -2.36135
upperneck 10.661 -3.41514 2.43466
head 7.12369 -1.49929 0.75224
rclavicle 3.54334e-014 2.94201e-014
rhumerus -64.0785 7.0636 -97.9852
rradius 113.031
rwrist -13.5882
rhand -17.5283 35.8755
rfingers 7.12502
rthumb 8.72558 6.07585
lclavicle 3.54334e-014 2.94201e-014
lhumerus -38.5177 -19.6755 97.4198
lradius 121.759
lwrist 30.9045
lhand -30.2167 -1.03645
lfingers 7.12502
lthumb -3.52676 28.9141
rfemur -36.1807 5.67563 20.7706
rtibia 23.2149
rfoot -0.0126126 -8.63337
rtoes -25.7649
lfemur 14.4032 -4.93581 -29.1662
ltibia 40.2797
lfoot 26.059 -15.5259
ltoes -11.1075
91
root -0.519236 18.5961 11.2792 5.53763 -2.43872 2.40951
lowerback 14.6327 -1.39507 -3.2737
upperback -1.82819 -2.33708 1.1888
thorax -10.0449 -0.890841 3.68025
lowerneck -23.2349 -2.81471 -2.37378
upperneck 9.99467 -3.41153 2.31689
head 6.86793 -1.5149 0.720717
rclavicle -5.71009e-014 1.66979e-014
rhumerus -63.3353 6.83844 -97.6767
rradius 112.92
rwrist -13.1921
rhand -18.0977 36.1891
rfingers 7.12502
rthumb 8.17608 6.36732
lclavicle -5.71009e-014 1.66979e-014
lhumerus -38.7502 -19.5613 97.8598
lradius 120.309
lwrist 30.9707
lhand -30.1046 -0.758073
lfingers 7.12502
lthumb -3.41844 29.1943
rfemur -34.9239 5.12538 21.5977
rtibia 21.3185
rfoot 1.0711 -7.95242
rtoes -29.4221
lfemur 13.8456 -5.05925 -28.69
ltibia 44.0734
lfoot 25.6308 -15.8346
ltoes -10.7477
92
root -0.501277 18.5435 11.8067 5.29615 -2.10892 2.31899
lowerback 14.7468 -1.57381 -2.78154
upperback -1.53342 -2.4809 1.22697
thorax -9.79003 -0.996695 3.47005
lowerneck -23.0157 -2.81604 -2.41815
upperneck 9.27472 -3.39659 2.35496
head 6.59791 -1.51134 0.747561
rclavicle 1.98785e-014 -1.66979e-014
rhumerus -62.4917 6.64399 -97.3777
rradius 112.816
rwrist -13.1739
rhand -17.8123 36.6126
rfingers 7.12502
rthumb 8.45153 6.80175
lclavicle 1.98785e-014 -1.66979e-014
lhumerus -38.8693 -19.3925 98.1355
lradius 118.591
lwrist 31.0592
lhand -30.5074 -0.938271
lfingers 7.12502
lthumb -3.80741 29.0075
rfemur -34.1226 3.9094 22.3869
rtibia 20.5999
rfoot 1.24385 -7.29507
rtoes -27.797
lfemur 13.2138 -5.14141 -28.4009
ltibia 47.8765
lfoot 24.7895 -16.8174
ltoes -12.1682
93
root -0.496092 18.4704 12.323 5.0725 -2.35339 1.9214
lowerback 14.998 -1.54335 -2.339
upperback -1.28176 -2.3471 1.38484
thorax -9.67738 -0.957011 3.36343
lowerneck -23.173 -2.73744 -2.39615
upperneck 9.03708 -3.28577 2.32794
head 6.54077 -1.45966 0.748465
rclavicle -1.97791e-014 -3.18055e-015
rhumerus -61.4417 6.56581 -97.0382
rradius 112.51
rwrist -13.6697
rhand -16.7978 36.3191
rfingers 7.12502
rthumb 9.43041 6.55012
lclavicle -1.97791e-014 -3.18055e-015
lhumerus -39.1207 -19.0397 98.3229
lradius 116.947
lwrist 31.5942
lhand -30.8046 -1.0577
lfingers 7.12502
lthumb -4.09447 28.8827
rfemur -33.6601 3.28957 23.5299
rtibia 20.8343
rfoot 0.693563 -6.82194
rtoes -24.6132
lfemur 12.393 -4.70823 -27.7273
ltibia 51.876
lfoot 24.0678 -17.7415
ltoes -13.0893
94
root -0.497206 18.3801 12.847 4.70237 -3.11066 1.50772
lowerback 15.394 -1.29577 -2.09512
upperback -1.11419 -1.96283 1.5434
thorax -9.74979 -0.780745 3.32121
lowerneck -22.9965 -2.706 -2.46631
upperneck 8.90458 -3.23293 2.38412
head 6.47108 -1.43368 0.786468
rclavicle 4.27387e-015 -7.95139e-015
rhumerus -60.4659 6.52358 -96.8241
rradius 111.97
rwrist -13.8077
rhand -16.2756 35.8389
rfingers 7.12502
rthumb 9.93431 6.09333
lclavicle 4.27387e-015 -7.95139e-015
lhumerus -39.774 -18.6538 98.6751
lradius 115.34
lwrist 32.2462
lhand -31.2147 -1.28019
lfingers 7.12502
lthumb -4.49047 28.6522
rfemur -33.1209 2.92291 24.784
rtibia 21.7478
rfoot 0.691715 -5.56363
rtoes -25.244
lfemur 11.5286 -3.79592 -27.0287
ltibia 56.082
lfoot 23.8158 -18.1698
ltoes -12.9043
